<svg enable-background="new 0 0 309.9 252.7" viewBox="0 0 309.9 252.7" xmlns="http://www.w3.org/2000/svg"><g fill="#003545"><path d="m56.2 208.5 11.3 43.5h-8.5l-7.5-31.4-14.1 31.4h-7.2l-14.2-31.1-7.7 31.2h-8.3l11.2-43.6h7.4l15.2 33.7 15.1-33.7z"/><path d="m99.5 225.3v-5.1h8.2v31.8h-8.2v-5.1c-2.2 3.7-6.6 5.8-12.1 5.8-11.3 0-17.7-8-17.7-17.2 0-8.9 6-16 16.5-16 6 .1 11 2.1 13.3 5.8zm-21 10.7c0 5.9 3.7 10.9 10.8 10.9 6.9 0 10.6-4.9 10.6-10.7s-3.9-10.7-11-10.7c-6.8-.1-10.4 4.8-10.4 10.5z"/><path d="m126.3 252.1h-8.2v-31.8h8.2v7.1c1.9-4.7 6.4-7.7 11.5-7.8 1.7 0 3.5.3 5.1.8l-1.8 6c-1.4-.4-2.9-.6-4.3-.6-5.9 0-10.5 4.5-10.5 11z"/><path d="m146.9 211.9c-.1-2.3 1.7-4.2 4.1-4.3h.3c2.4-.1 4.4 1.8 4.5 4.2v.2c0 2.3-1.8 4.2-4.1 4.2-.1 0-.3 0-.4 0-2.3.1-4.3-1.7-4.4-4 0-.1 0-.2 0-.3zm.4 8.4h8.2v23.2c0 1.4.3 2.5 1.5 2.5.5 0 1.1-.1 1.6-.2l1.3 6c-1.7.7-3.6 1-5.4 1-3.4 0-7.1-1-7.1-8.8z"/><path d="m192.2 225.3v-5.1h8.2v31.8h-8.2v-5.1c-2.2 3.7-6.6 5.8-12.1 5.8-11.3 0-17.7-8-17.7-17.2 0-8.9 6-16 16.5-16 6 .1 10.9 2.1 13.3 5.8zm-21 10.7c0 5.9 3.7 10.9 10.8 10.9 6.9 0 10.6-4.9 10.6-10.7s-3.9-10.7-11-10.7c-6.8-.1-10.4 4.8-10.4 10.5z"/><path d="m213 208.5h19.7c16.5 0 24.8 9.1 24.7 21.8.1 13.2-9 21.8-23.2 21.8h-21.2zm5.4 3.9v35.9h15c13.1 0 18.2-8.9 18.2-18.1 0-10.4-6.3-17.8-18.2-17.8z"/><path d="m290.9 252.1h-25v-43.5h22.5c8.6 0 16.8 1.6 16.7 11.3 0 6.8-4.2 8.7-8.7 9.4 6.3.5 10.1 4.6 10.1 11.1.1 9.7-8.4 11.7-15.6 11.7zm-1.9-24.6c8.6 0 10.6-3.3 10.6-7.5 0-6.3-3.9-7.8-10.6-7.8h-17.9v15.3zm.2 3.7h-18.2v17.2h19c5.3 0 10.9-1.8 10.9-8.4 0-7.8-6.4-8.8-11.7-8.8z"/><path d="m308.5.9c-.8-.7-1.8-1-2.8-.9-2.8 0-6.5 1.9-8.5 3l-.8.4c-3.3 1.6-6.9 2.5-10.6 2.7-3.8.1-7 .3-11.2.8-25 2.6-36.2 21.7-46.9 40.3-5.8 10.1-11.9 20.6-20.2 28.6-1.7 1.7-3.5 3.2-5.4 4.6-8.6 6.4-19.3 10.9-27.7 14.1-8.1 3.1-16.9 5.8-25.4 8.5-7.8 2.4-15.1 4.8-21.9 7.3-3.1 1.1-5.6 2-7.9 2.8-6.2 2-10.6 3.5-17.1 8-2.5 1.7-5.1 3.6-6.8 5-5.2 4.1-9.7 8.9-13.6 14.3-3.3 4.9-7.1 9.5-11.4 13.7-1.4 1.3-3.8 2-7.4 2-4.3 0-9.4-.9-14.9-1.8-5.6-1-11.5-1.9-16.5-1.9-4.1 0-7.2.7-9.5 2 0 0-3.9 2.3-5.6 5.2l1.6.7c2.5 1.4 4.8 3 6.9 5 2.2 2 4.6 3.7 7.2 5.1.8.3 1.6.8 2.2 1.4-.7 1-1.7 2.3-2.7 3.7-5.8 7.6-9.1 12.3-7.2 14.9.9.5 2 .7 3 .7 12.6 0 19.3-3.3 27.9-7.4 2.5-1.2 5-2.4 8-3.7 5-2.2 10.4-5.6 16.1-9.3 7.5-4.9 15.3-9.9 22.9-12.3 6.2-1.9 12.7-2.8 19.2-2.7 8 0 16.4 1.1 24.5 2.1 6.1.8 12.3 1.6 18.5 1.9 2.4.1 4.6.2 6.8.2 2.9 0 5.8-.1 8.6-.4l.7-.2c4.3-2.6 6.3-8.3 8.3-13.8 1.3-3.5 2.3-6.7 4-8.7.1-.1.2-.2.3-.3.2-.1.4-.1.5.1v.2c-1 21.5-9.7 35.2-18.4 47.3l-5.9 6.3s8.2 0 12.9-1.8c17-5.1 29.8-16.3 39.2-34.1 2.3-4.6 4.4-9.3 6.2-14.1.2-.4 1.6-1.1 1.5.9-.1.6-.1 1.3-.1 2 0 .4 0 .9-.1 1.3-.2 3-.9 9.3-.9 9.3l5.3-2.8c12.7-8 22.4-24.1 29.8-49.3 3.1-10.5 5.3-20.8 7.3-30 2.4-11 4.4-20.4 6.8-24.1 3.7-5.7 9.3-9.6 14.8-13.4.7-.5 1.5-1 2.2-1.5 6.9-4.8 13.7-10.4 15.2-20.7v-.2c1-8.1.1-10.1-1-11z"/></g></svg>